<svg width="198" height="69" viewBox="0 0 198 69" fill="none" xmlns="http://www.w3.org/2000/svg">
<path d="M50.4775 20.2233C49.4356 23.6391 48.3118 27.3828 47.2692 30.7994C47.2708 30.7994 47.2737 30.7989 47.2754 30.7989C47.3152 30.7913 47.3561 30.786 47.397 30.7854C47.4397 30.7818 47.4778 30.7832 47.513 30.7879C47.8851 30.804 48.2068 30.9077 48.4634 31.0873C49.5937 27.3814 50.8068 23.3483 51.9371 19.6424C51.4355 19.9307 50.9357 20.1309 50.4775 20.2233Z" fill="#475569"/>
<path d="M34.516 28.5453C34.511 28.9586 34.3148 29.3802 33.9636 29.7768C37.4922 30.8382 41.3815 32.0281 44.9102 33.0902C45.0347 32.6971 45.3152 32.305 45.7505 31.9463C42.1259 30.855 38.1406 29.636 34.516 28.5453Z" fill="#475569"/>
<path d="M27.1154 37.7406C26.5886 37.6285 26.0159 37.6745 25.4475 37.9043C24.066 38.4624 23.6615 40.1351 24.1744 41.4061C24.7317 42.7858 26.406 43.1874 27.6788 42.6736C29.0048 42.1378 29.4284 40.5754 29.0063 39.327C28.9965 39.2767 28.9806 39.2256 28.9515 39.1712C28.9292 39.1158 28.9005 39.0714 28.869 39.0319C28.664 38.6912 28.4104 38.4086 28.1195 38.1933C29.1866 35.7487 30.2953 33.1891 31.3618 30.7447C31.0204 30.5682 30.7185 30.3169 30.4875 29.9962C29.3774 32.5391 28.2254 35.1978 27.1154 37.7406ZM25.1745 40.9383C24.2411 39.1952 27.0238 37.9049 27.9515 39.639C28.6915 41.4711 26.1066 42.6804 25.1745 40.9383Z" fill="#475569"/>
<path d="M34.6754 27.7797C34.667 27.7603 34.6582 27.7417 34.6489 27.724C34.6398 27.6973 34.6294 27.671 34.6155 27.6444C34.0052 26.4424 32.5646 25.8905 31.3043 26.3753C30.0224 26.8684 29.392 28.2643 29.7315 29.5622C29.7755 29.7315 29.8374 29.8901 29.9129 30.0393C30.092 30.3916 30.3517 30.6856 30.662 30.9123C31.3493 31.4144 32.2816 31.5846 33.1204 31.3128C33.9941 31.0294 34.596 30.2959 34.8053 29.458C34.9022 29.0675 34.914 28.6541 34.8271 28.2532C34.7924 28.0921 34.7429 27.9339 34.6754 27.7797ZM32.8119 30.2547C31.9579 30.589 31.0783 30.0802 30.7916 29.2538C30.5323 28.5095 30.9907 27.7586 31.6426 27.4212C32.4062 27.0246 33.2699 27.4883 33.6474 28.1701C33.9598 28.989 33.6801 29.915 32.8119 30.2547Z" fill="#475569"/>
<path d="M48.8577 31.2614C48.8328 31.2346 48.808 31.2125 48.7824 31.1927C48.7806 31.1911 48.7796 31.1901 48.7778 31.1886C47.7049 30.2436 46.1358 30.2966 45.1016 31.2973C44.8622 31.5288 44.6845 31.7968 44.5644 32.0842C44.4153 32.4408 44.3538 32.8263 44.3736 33.21C44.408 33.8964 44.7004 34.5765 45.2092 35.0652C46.2173 36.0338 47.7779 35.9192 48.7939 35.05C49.6383 34.327 49.7958 33.1781 49.4357 32.2074C49.3192 31.8922 49.1475 31.5957 48.9275 31.3393C48.9067 31.3126 48.8841 31.2865 48.8577 31.2614ZM48.0746 34.2134C47.5544 34.7688 46.6387 34.791 46.0519 34.3366C45.3724 33.8096 45.2822 32.8148 45.8151 32.1513C46.399 31.4238 47.4546 31.4509 48.0986 32.0619C48.6789 32.688 48.6483 33.6007 48.0746 34.2134Z" fill="#475569"/>
<path d="M54.1103 17.0048C53.6861 15.6879 52.2714 15.0117 50.9673 15.3067C50.9387 15.3116 50.9093 15.3182 50.8786 15.3278C50.8476 15.3361 50.8199 15.3463 50.7932 15.3575C49.4844 15.8237 48.7782 17.1189 49.0534 18.4792C49.1738 19.0744 49.5123 19.5616 49.964 19.906C50.258 20.1306 50.6003 20.2941 50.9621 20.3864C51.4881 20.5202 52.0557 20.5041 52.5739 20.3046C53.8881 19.7986 54.5355 18.3227 54.1103 17.0048ZM52.2364 19.2591C51.3468 19.7197 50.3417 19.0422 50.1133 18.1702C49.9099 17.3905 50.4614 16.6199 51.1871 16.3858C51.9572 16.1845 52.7604 16.5601 53.051 17.3136C53.3518 18.0949 52.9467 18.8904 52.2364 19.2591Z" fill="#475569"/>
<g clip-path="url(#clip0_698_5370)">
<g filter="url(#filter0_d_698_5370)">
<path d="M35.899 33.9713C35.899 31.7526 36.3577 29.7793 37.275 28.0513C38.2137 26.302 39.5363 24.9473 41.243 23.9873C42.9497 23.006 44.9123 22.5153 47.131 22.5153C49.947 22.5153 52.315 23.2726 54.235 24.7873C56.155 26.2806 57.3923 28.318 57.947 30.8993H51.195C50.7897 30.046 50.2243 29.3953 49.499 28.9473C48.795 28.4993 47.9737 28.2753 47.035 28.2753C45.5843 28.2753 44.4217 28.798 43.547 29.8433C42.6937 30.8673 42.267 32.2433 42.267 33.9713C42.267 35.7206 42.6937 37.118 43.547 38.1633C44.4217 39.1873 45.5843 39.6993 47.035 39.6993C47.9737 39.6993 48.795 39.4753 49.499 39.0273C50.2243 38.5793 50.7897 37.9286 51.195 37.0753H57.947C57.3923 39.6566 56.155 41.7046 54.235 43.2193C52.315 44.7126 49.947 45.4593 47.131 45.4593C44.9123 45.4593 42.9497 44.9793 41.243 44.0193C39.5363 43.038 38.2137 41.6833 37.275 39.9553C36.3577 38.206 35.899 36.2113 35.899 33.9713ZM71.733 45.5233C69.621 45.5233 67.6797 45.0326 65.909 44.0513C64.1383 43.0486 62.7303 41.6726 61.685 39.9233C60.661 38.1526 60.149 36.158 60.149 33.9393C60.149 31.7206 60.661 29.7366 61.685 27.9873C62.7303 26.2166 64.1383 24.8406 65.909 23.8593C67.6797 22.878 69.621 22.3873 71.733 22.3873C73.8663 22.3873 75.8077 22.878 77.557 23.8593C79.3277 24.8406 80.725 26.2166 81.749 27.9873C82.773 29.7366 83.285 31.7206 83.285 33.9393C83.285 36.158 82.773 38.1526 81.749 39.9233C80.725 41.6726 79.3277 43.0486 77.557 44.0513C75.7863 45.0326 73.845 45.5233 71.733 45.5233ZM71.733 39.6993C73.333 39.6993 74.5917 39.1766 75.509 38.1313C76.4477 37.086 76.917 35.6886 76.917 33.9393C76.917 32.1473 76.4477 30.7393 75.509 29.7153C74.5917 28.67 73.333 28.1473 71.733 28.1473C70.1117 28.1473 68.8423 28.67 67.925 29.7153C67.0077 30.7393 66.549 32.1473 66.549 33.9393C66.549 35.71 67.0077 37.118 67.925 38.1633C68.8423 39.1873 70.1117 39.6993 71.733 39.6993ZM97.5285 45.2993L93.0485 36.9793H92.3765V45.2993H86.1045V22.7393H95.9925C97.8058 22.7393 99.3418 23.0593 100.601 23.6993C101.859 24.318 102.809 25.182 103.449 26.2913C104.089 27.3793 104.409 28.606 104.409 29.9713C104.409 31.5073 103.982 32.862 103.128 34.0353C102.297 35.1873 101.07 36.0086 99.4485 36.4993L104.537 45.2993H97.5285ZM92.3765 32.6913H95.4805C96.3338 32.6913 96.9738 32.4886 97.4005 32.0833C97.8272 31.678 98.0405 31.0913 98.0405 30.3233C98.0405 29.598 97.8165 29.0326 97.3685 28.6273C96.9418 28.2006 96.3125 27.9873 95.4805 27.9873H92.3765V32.6913ZM113.533 27.7633V31.4433H120.733V36.2113H113.533V40.2753H121.693V45.2993H107.261V22.7393H121.693V27.7633H113.533ZM128.312 22.9953V37.1073C128.312 39.0913 128.792 40.5633 129.752 41.5233C130.733 42.4833 132.088 42.9633 133.816 42.9633C135.523 42.9633 136.856 42.4833 137.816 41.5233C138.797 40.5633 139.288 39.0913 139.288 37.1073V22.9953H142.2V37.0753C142.2 38.9313 141.827 40.4993 141.08 41.7793C140.333 43.038 139.32 43.9766 138.04 44.5953C136.781 45.214 135.363 45.5233 133.784 45.5233C132.205 45.5233 130.776 45.214 129.496 44.5953C128.237 43.9766 127.235 43.038 126.488 41.7793C125.763 40.4993 125.4 38.9313 125.4 37.0753V22.9953H128.312ZM161.97 29.5233C161.97 31.3793 161.33 32.926 160.05 34.1633C158.791 35.3793 156.86 35.9873 154.258 35.9873H149.97V45.2993H147.058V22.9953H154.258C156.775 22.9953 158.684 23.6033 159.986 24.8193C161.308 26.0353 161.97 27.6033 161.97 29.5233ZM154.258 33.5873C155.879 33.5873 157.074 33.2353 157.842 32.5313C158.61 31.8273 158.994 30.8246 158.994 29.5233C158.994 26.7713 157.415 25.3953 154.258 25.3953H149.97V33.5873H154.258Z" fill="#475569"/>
</g>
</g>
<defs>
<filter id="filter0_d_698_5370" x="-7.101" y="-20.6128" width="212.071" height="109.136" filterUnits="userSpaceOnUse" color-interpolation-filters="sRGB">
<feFlood flood-opacity="0" result="BackgroundImageFix"/>
<feColorMatrix in="SourceAlpha" type="matrix" values="0 0 0 0 0 0 0 0 0 0 0 0 0 0 0 0 0 0 127 0" result="hardAlpha"/>
<feOffset/>
<feGaussianBlur stdDeviation="21.5"/>
<feComposite in2="hardAlpha" operator="out"/>
<feColorMatrix type="matrix" values="0 0 0 0 0 0 0 0 0 0 0 0 0 0 0 0 0 0 0.1 0"/>
<feBlend mode="normal" in2="BackgroundImageFix" result="effect1_dropShadow_698_5370"/>
<feBlend mode="normal" in="SourceGraphic" in2="effect1_dropShadow_698_5370" result="shape"/>
</filter>
<clipPath id="clip0_698_5370">
<rect width="198" height="68.5984" fill="white"/>
</clipPath>
</defs>
</svg>
