<svg width="380" height="88" viewBox="0 0 380 88" fill="none" xmlns="http://www.w3.org/2000/svg">
<path d="M142.148 27.2259C140.811 31.6077 139.37 36.4103 138.032 40.7932C138.034 40.7931 138.038 40.7926 138.04 40.7926C138.091 40.7827 138.144 40.776 138.196 40.7752C138.251 40.7706 138.3 40.7724 138.345 40.7784C138.822 40.7991 139.235 40.9322 139.564 41.1625C141.014 36.4085 142.57 31.2347 144.02 26.4806C143.377 26.8505 142.736 27.1074 142.148 27.2259Z" fill="#475569"/>
<path d="M121.672 37.9017C121.666 38.4319 121.414 38.9727 120.963 39.4815C125.49 40.8431 130.479 42.3695 135.006 43.732C135.166 43.2277 135.526 42.7247 136.084 42.2646C131.434 40.8646 126.322 39.3008 121.672 37.9017Z" fill="#475569"/>
<path d="M112.178 49.6975C111.503 49.5537 110.768 49.6127 110.039 49.9075C108.267 50.6234 107.748 52.7692 108.406 54.3997C109.12 56.1696 111.268 56.6848 112.901 56.0257C114.602 55.3384 115.146 53.3341 114.604 51.7326C114.591 51.668 114.571 51.6024 114.534 51.5327C114.505 51.4617 114.468 51.4047 114.428 51.3541C114.165 50.9169 113.84 50.5544 113.466 50.2783C114.835 47.1422 116.258 43.8586 117.626 40.7229C117.188 40.4965 116.8 40.1741 116.504 39.7628C115.08 43.0249 113.602 46.4355 112.178 49.6975ZM109.688 53.7995C108.491 51.5635 112.061 49.9083 113.251 52.1329C114.2 54.4831 110.884 56.0344 109.688 53.7995Z" fill="#475569"/>
<path d="M121.877 36.9194C121.866 36.8945 121.854 36.8707 121.843 36.8479C121.831 36.8137 121.818 36.7799 121.8 36.7458C121.017 35.2039 119.169 34.4958 117.552 35.1177C115.908 35.7503 115.099 37.541 115.534 39.2061C115.591 39.4233 115.67 39.6267 115.767 39.8181C115.997 40.27 116.33 40.6471 116.728 40.9379C117.61 41.5821 118.806 41.8004 119.882 41.4517C121.003 41.0881 121.775 40.1472 122.043 39.0723C122.167 38.5714 122.183 38.0411 122.071 37.5268C122.027 37.3201 121.963 37.1173 121.877 36.9194ZM119.486 40.0944C118.39 40.5232 117.262 39.8705 116.894 38.8104C116.562 37.8556 117.15 36.8923 117.986 36.4595C118.966 35.9507 120.074 36.5456 120.558 37.4202C120.959 38.4707 120.6 39.6586 119.486 40.0944Z" fill="#475569"/>
<path d="M140.07 41.3859C140.038 41.3515 140.006 41.3232 139.973 41.2977C139.971 41.2958 139.97 41.2944 139.967 41.2925C138.591 40.0802 136.578 40.1482 135.252 41.432C134.944 41.7289 134.717 42.0727 134.562 42.4414C134.371 42.8988 134.292 43.3935 134.318 43.8857C134.362 44.7662 134.737 45.6386 135.39 46.2656C136.683 47.5081 138.685 47.361 139.988 46.246C141.071 45.3185 141.273 43.8447 140.811 42.5995C140.662 42.1951 140.442 41.8148 140.159 41.4859C140.133 41.4516 140.104 41.4181 140.07 41.3859ZM139.065 45.1728C138.398 45.8854 137.223 45.9138 136.471 45.3308C135.599 44.6549 135.483 43.3787 136.167 42.5275C136.916 41.5942 138.27 41.629 139.096 42.4128C139.841 43.216 139.801 44.3868 139.065 45.1728Z" fill="#475569"/>
<path d="M146.808 23.0973C146.264 21.408 144.449 20.5406 142.776 20.919C142.74 20.9253 142.702 20.9337 142.663 20.946C142.623 20.9567 142.587 20.9697 142.553 20.9841C140.874 21.5821 139.968 23.2437 140.321 24.9888C140.475 25.7523 140.91 26.3773 141.489 26.8191C141.866 27.1073 142.305 27.317 142.77 27.4354C143.444 27.607 144.172 27.5864 144.837 27.3304C146.523 26.6814 147.354 24.7881 146.808 23.0973ZM144.404 25.9893C143.263 26.5801 141.974 25.7109 141.681 24.5923C141.42 23.5922 142.127 22.6036 143.058 22.3033C144.046 22.045 145.076 22.5268 145.449 23.4935C145.835 24.4958 145.315 25.5162 144.404 25.9893Z" fill="#475569"/>
<g clip-path="url(#clip0_625_4211)">
<g filter="url(#filter0_d_625_4211)">
<path d="M126.899 43.672C126.899 41.4533 127.358 39.48 128.275 37.752C129.214 36.0027 130.536 34.648 132.243 33.688C133.95 32.7067 135.912 32.216 138.131 32.216C140.947 32.216 143.315 32.9733 145.235 34.488C147.155 35.9813 148.392 38.0187 148.947 40.6H142.195C141.79 39.7467 141.224 39.096 140.499 38.648C139.795 38.2 138.974 37.976 138.035 37.976C136.584 37.976 135.422 38.4987 134.547 39.544C133.694 40.568 133.267 41.944 133.267 43.672C133.267 45.4213 133.694 46.8187 134.547 47.864C135.422 48.888 136.584 49.4 138.035 49.4C138.974 49.4 139.795 49.176 140.499 48.728C141.224 48.28 141.79 47.6293 142.195 46.776H148.947C148.392 49.3573 147.155 51.4053 145.235 52.92C143.315 54.4133 140.947 55.16 138.131 55.16C135.912 55.16 133.95 54.68 132.243 53.72C130.536 52.7387 129.214 51.384 128.275 49.656C127.358 47.9067 126.899 45.912 126.899 43.672ZM162.733 55.224C160.621 55.224 158.68 54.7333 156.909 53.752C155.138 52.7493 153.73 51.3733 152.685 49.624C151.661 47.8533 151.149 45.8587 151.149 43.64C151.149 41.4213 151.661 39.4373 152.685 37.688C153.73 35.9173 155.138 34.5413 156.909 33.56C158.68 32.5787 160.621 32.088 162.733 32.088C164.866 32.088 166.808 32.5787 168.557 33.56C170.328 34.5413 171.725 35.9173 172.749 37.688C173.773 39.4373 174.285 41.4213 174.285 43.64C174.285 45.8587 173.773 47.8533 172.749 49.624C171.725 51.3733 170.328 52.7493 168.557 53.752C166.786 54.7333 164.845 55.224 162.733 55.224ZM162.733 49.4C164.333 49.4 165.592 48.8773 166.509 47.832C167.448 46.7867 167.917 45.3893 167.917 43.64C167.917 41.848 167.448 40.44 166.509 39.416C165.592 38.3707 164.333 37.848 162.733 37.848C161.112 37.848 159.842 38.3707 158.925 39.416C158.008 40.44 157.549 41.848 157.549 43.64C157.549 45.4107 158.008 46.8187 158.925 47.864C159.842 48.888 161.112 49.4 162.733 49.4ZM188.529 55L184.049 46.68H183.377V55H177.105V32.44H186.993C188.806 32.44 190.342 32.76 191.601 33.4C192.859 34.0187 193.809 34.8827 194.449 35.992C195.089 37.08 195.409 38.3067 195.409 39.672C195.409 41.208 194.982 42.5627 194.128 43.736C193.297 44.888 192.07 45.7093 190.449 46.2L195.537 55H188.529ZM183.377 42.392H186.481C187.334 42.392 187.974 42.1893 188.401 41.784C188.827 41.3787 189.041 40.792 189.041 40.024C189.041 39.2987 188.817 38.7333 188.369 38.328C187.942 37.9013 187.313 37.688 186.481 37.688H183.377V42.392ZM204.533 37.464V41.144H211.733V45.912H204.533V49.976H212.693V55H198.261V32.44H212.693V37.464H204.533ZM219.312 32.696V46.808C219.312 48.792 219.792 50.264 220.752 51.224C221.733 52.184 223.088 52.664 224.816 52.664C226.523 52.664 227.856 52.184 228.816 51.224C229.797 50.264 230.288 48.792 230.288 46.808V32.696H233.2V46.776C233.2 48.632 232.827 50.2 232.08 51.48C231.333 52.7387 230.32 53.6773 229.04 54.296C227.781 54.9147 226.363 55.224 224.784 55.224C223.205 55.224 221.776 54.9147 220.496 54.296C219.237 53.6773 218.235 52.7387 217.488 51.48C216.763 50.2 216.4 48.632 216.4 46.776V32.696H219.312ZM252.97 39.224C252.97 41.08 252.33 42.6267 251.05 43.864C249.791 45.08 247.86 45.688 245.258 45.688H240.97V55H238.058V32.696H245.258C247.775 32.696 249.684 33.304 250.986 34.52C252.308 35.736 252.97 37.304 252.97 39.224ZM245.258 43.288C246.879 43.288 248.074 42.936 248.842 42.232C249.61 41.528 249.994 40.5253 249.994 39.224C249.994 36.472 248.415 35.096 245.258 35.096H240.97V43.288H245.258Z" fill="#475569"/>
</g>
</g>
<defs>
<filter id="filter0_d_625_4211" x="83.899" y="-10.912" width="212.071" height="109.136" filterUnits="userSpaceOnUse" color-interpolation-filters="sRGB">
<feFlood flood-opacity="0" result="BackgroundImageFix"/>
<feColorMatrix in="SourceAlpha" type="matrix" values="0 0 0 0 0 0 0 0 0 0 0 0 0 0 0 0 0 0 127 0" result="hardAlpha"/>
<feOffset/>
<feGaussianBlur stdDeviation="21.5"/>
<feComposite in2="hardAlpha" operator="out"/>
<feColorMatrix type="matrix" values="0 0 0 0 0 0 0 0 0 0 0 0 0 0 0 0 0 0 0.1 0"/>
<feBlend mode="normal" in2="BackgroundImageFix" result="effect1_dropShadow_625_4211"/>
<feBlend mode="normal" in="SourceGraphic" in2="effect1_dropShadow_625_4211" result="shape"/>
</filter>
<clipPath id="clip0_625_4211">
<rect width="380" height="88" fill="white"/>
</clipPath>
</defs>
</svg>
